<svg xmlns="http://www.w3.org/2000/svg" viewBox="0 0 1200 420"><rect width="100%" height="100%" rx="18" fill="#0b0c10"/>
<defs><marker id="a" viewBox="0 0 10 10" refX="9" refY="5" markerWidth="8" markerHeight="8" orient="auto-start-reverse"><path d="M0 0L10 5L0 10z" fill="#c8f560"/></marker><style>.b{fill:#12141a;stroke:#23262f;stroke-width:2}.t{font-family:Inter Tight,system-ui,sans-serif;fill:#ecedf1;font-size:22px;text-anchor:middle}.s{font-family:JetBrains Mono,ui-monospace,monospace;fill:#a3a9b6;font-size:15px;text-anchor:middle}.l{stroke:#c8f560;stroke-width:2;fill:none;marker-end:url(#a)}.d{stroke:#7aa2ff;stroke-width:2;fill:none;stroke-dasharray:8 6;marker-end:url(#a)}</style></defs>
<rect class="b" x="20" y="160" width="150" height="90" rx="12"/><text class="t" x="95" y="201">Caller</text><text class="s" x="95" y="227">phone</text><path class="l" d="M170 205 L220 205"/><rect class="b" x="220" y="160" width="190" height="90" rx="12"/><text class="t" x="315" y="201">Twilio Voice</text><text class="s" x="315" y="227">Gather webhook</text><path class="l" d="M410 205 L460 205"/><rect class="b" x="460" y="160" width="220" height="90" rx="12"/><text class="t" x="570" y="201">FastAPI</text><text class="s" x="570" y="227">/voice/incoming, /respond</text><path class="l" d="M680 205 L730 205"/><rect class="b" x="730" y="160" width="220" height="90" rx="12"/><text class="t" x="840" y="201">Claude</text><text class="s" x="840" y="227">system prompt from JSON</text><rect class="b" x="730" y="20" width="220" height="80" rx="12"/><text class="t" x="840" y="56">business_info.json</text><text class="s" x="840" y="82">hours, services, address</text><path class="l" d="M840 100 L840 160"/><rect class="b" x="460" y="300" width="220" height="90" rx="12"/><text class="t" x="570" y="341">ElevenLabs TTS</text><text class="s" x="570" y="367">primary voice</text><path class="l" d="M730 250 L600 300"/><rect class="b" x="20" y="300" width="220" height="90" rx="12"/><text class="t" x="130" y="341">Amazon Polly</text><text class="s" x="130" y="367">fallback voice</text><path class="d" d="M460 345 L240 345"/><path class="l" d="M460 320 L305 250"/><text class="s" x="330" y="290">TwiML back to Twilio</text><rect class="b" x="980" y="160" width="200" height="90" rx="12"/><text class="t" x="1080" y="201">Railway</text><text class="s" x="1080" y="227">/health, Procfile</text></svg>
